<svg width="196" height="163" viewBox="0 0 196 163" fill="none" xmlns="http://www.w3.org/2000/svg">
<path d="M172.597 14.4478H106.914C105.257 14.4478 103.914 15.791 103.914 17.4478V54.1618H175.597V17.4478C175.597 15.791 174.253 14.4478 172.597 14.4478Z" fill="url(#paint0_linear_43_801)"/>
<path d="M175.597 60.1617H55.1836C53.5267 60.1617 52.1836 61.5049 52.1836 63.1617V99.8757H175.597V60.1617Z" fill="url(#paint1_linear_43_801)"/>
<path d="M175.597 105.876H23.0046C21.3478 105.876 20.0046 107.219 20.0046 108.876V142.59C20.0046 144.246 21.3478 145.59 23.0046 145.59H172.597C174.253 145.59 175.597 144.246 175.597 142.59V105.876Z" fill="url(#paint2_linear_43_801)"/>
<defs>
<linearGradient id="paint0_linear_43_801" x1="175.597" y1="34.3048" x2="103.914" y2="34.3048" gradientUnits="userSpaceOnUse">
<stop stop-color="#FF7170"/>
<stop offset="1" stop-color="#FFCDB5"/>
</linearGradient>
<linearGradient id="paint1_linear_43_801" x1="52.1836" y1="80.0187" x2="175.597" y2="80.0187" gradientUnits="userSpaceOnUse">
<stop stop-color="#F1A9F9"/>
<stop offset="1" stop-color="#04DCFB"/>
</linearGradient>
<linearGradient id="paint2_linear_43_801" x1="175.597" y1="125.733" x2="20.0046" y2="125.733" gradientUnits="userSpaceOnUse">
<stop stop-color="#7832FE"/>
<stop offset="1" stop-color="#E99AF9"/>
</linearGradient>
</defs>
</svg>
