<svg xmlns="http://www.w3.org/2000/svg" width="37" height="37" viewBox="0 0 37 37" fill="none"><script xmlns="" type="text/javascript"/>
<g clip-path="url(#clip0_5264_5166)">
<path d="M18.4496 35.9724C28.0867 35.9724 35.8991 28.1599 35.8991 18.5228C35.8991 8.88568 28.0867 1.07324 18.4496 1.07324C8.81244 1.07324 1 8.88568 1 18.5228C1 28.1599 8.81244 35.9724 18.4496 35.9724Z" fill="url(#paint0_radial_5264_5166)"/>
<path d="M11.7759 23.1109H9.29272C9.49543 26.9877 12.7388 30.3578 18.4908 30.3578C24.2174 30.3578 27.8661 27.2158 27.8661 23.1615C27.8661 15.4585 16.2355 15.8893 16.2355 11.4297C16.2355 10.188 17.1731 8.71839 19.3523 8.71839C21.7848 8.71839 24.6481 10.6188 24.8508 13.0514H27.3087C27.0553 9.1238 23.2291 6.38721 18.3641 6.38721C13.3216 6.38721 9.52078 9.32652 9.52078 13.482C9.52078 21.4131 21.1513 20.3742 21.1513 25.2646C21.1513 26.785 20.2137 28.0519 17.8572 28.0519C14.918 28.0519 11.9533 25.9995 11.7759 23.1109ZM13.8537 12.0125C13.8537 18.043 25.3829 16.8521 25.3829 23.2882C25.3829 25.214 24.116 26.9117 22.5957 27.3425C23.1277 26.8357 23.5332 25.7208 23.5332 24.6565C23.5332 18.7019 11.9787 19.5127 11.9787 13.4061C11.9787 11.3536 13.2963 9.7066 14.9433 9.19983C14.3098 9.95999 13.8537 10.9482 13.8537 12.0125Z" fill="white"/>
</g>
<circle cx="18.5" cy="18.5" r="17.5" stroke="#1BE3C2" stroke-width="2"/>
<defs>
<radialGradient id="paint0_radial_5264_5166" cx="0" cy="0" r="1" gradientUnits="userSpaceOnUse" gradientTransform="translate(18.4496 55.4288) rotate(-90) scale(54.3556)">
<stop stop-color="#FFEF79"/>
<stop offset="1" stop-color="#00C2A1"/>
</radialGradient>
<clipPath id="clip0_5264_5166">
<rect width="34.8991" height="35" fill="white" transform="translate(1 1)"/>
</clipPath>
</defs>
<script xmlns=""/></svg>